<?xml version="1.0" encoding="UTF-8"?>
<svg version="1.1" xmlns="http://www.w3.org/2000/svg" width="185" height="42">
<path d="M0 0 C4.45531067 2.11041032 7.15810959 4.39527396 9 9 C9.71091959 13.66047288 9.51221747 17.65440388 7.3125 21.875 C3.79604881 26.62696107 3.79604881 26.62696107 0 28 C-4.89364045 28.52405501 -9.33510742 28.67304168 -13.9375 26.8125 C-18.59262509 22.7216325 -20.72877992 19.55561499 -21.1640625 13.34765625 C-20.88712461 9.38480698 -19.49560779 6.08116939 -17 3 C-11.6704805 -0.97657115 -6.40652339 -0.78128334 0 0 Z M-10.1875 8.1875 C-12.46636926 10.46636926 -12.84394124 11.80079552 -13 15 C-12.57540068 17.26596664 -12.57540068 17.26596664 -11 19 C-8.22556523 20.59152808 -8.22556523 20.59152808 -5 21 C-2.08921756 20.17020292 -2.08921756 20.17020292 0 18 C1.33550847 15.15372409 1.33550847 15.15372409 1 12 C-1.06285219 9.02041215 -1.06285219 9.02041215 -4 7 C-7.82893746 6.68193876 -7.82893746 6.68193876 -10.1875 8.1875 Z " fill="#206778" transform="translate(107,0)"/>
<path d="M0 0 C1.6026782 -0.10824843 3.20745748 -0.18570645 4.8125 -0.25 C5.70582031 -0.29640625 6.59914062 -0.3428125 7.51953125 -0.390625 C10 -0 10 -0 11.82421875 2.015625 C12.40623047 2.99789063 12.40623047 2.99789063 13 4 C13.309375 3.34 13.61875 2.68 13.9375 2 C16.45557014 -0.44176498 17.28107372 -0.27142406 20.6875 -0.25 C22.1259798 -0.18576167 23.56416999 -0.10836453 25 0 C23.88026444 3.35920667 22.44248686 5.76984607 20.25 8.5 C18.22025885 11.16349498 18.22025885 11.16349498 18.3125 14.4375 C20.32010896 17.48609138 22.47902254 20.37925547 24.7578125 23.23046875 C26 25 26 25 26 27 C22.92553889 27.35474551 20.05872891 27.53698855 17 27 C14.4375 24 14.4375 24 13 21 C12.38125 21.99 11.7625 22.98 11.125 24 C9.25860227 26.30459546 8.41558705 26.93528263 5.44140625 27.3984375 C2.93736616 27.37712652 0.48990843 27.26107778 -2 27 C-0.61397027 23.96425683 1.05572296 21.61961972 3.1875 19.0625 C5.48647412 16.09478649 5.48647412 16.09478649 6.1875 12.5 C4.72175465 9.41422032 2.96880913 6.59968038 1.05859375 3.76953125 C0 2 0 2 0 0 Z " fill="#F7B500" transform="translate(159,0)"/>
<path d="M0 0 C0.99 0.66 1.98 1.32 3 2 C2.34 3.98 1.68 5.96 1 8 C-1.64 7.67 -4.28 7.34 -7 7 C-7 7.66 -7 8.32 -7 9 C-6.37351562 9.18175781 -5.74703125 9.36351562 -5.1015625 9.55078125 C-4.28429687 9.80214844 -3.46703125 10.05351562 -2.625 10.3125 C-1.81289062 10.55613281 -1.00078125 10.79976562 -0.1640625 11.05078125 C2 12 2 12 4 15 C4.46797583 19.21178243 4.46565795 21.28599114 2.125 24.875 C-0.75649244 27.75649244 -2.34601649 28.17000369 -6.3125 28.25 C-10.33331901 28.22405923 -12.75215963 27.51445706 -16 25 C-15.34 23.02 -14.68 21.04 -14 19 C-11.03 19.33 -8.06 19.66 -5 20 C-4.67 19.34 -4.34 18.68 -4 18 C-4.62648438 17.80664062 -5.25296875 17.61328125 -5.8984375 17.4140625 C-6.71570313 17.15367188 -7.53296875 16.89328125 -8.375 16.625 C-9.18710938 16.36976562 -9.99921875 16.11453125 -10.8359375 15.8515625 C-13 15 -13 15 -15 13 C-15.54649221 8.2377107 -15.68081954 6.08931127 -13.125 2 C-8.82424082 -0.75248588 -4.99196332 -0.8037907 0 0 Z " fill="#206777" transform="translate(80,0)"/>
<path d="M0 0 C0.66 0.33 1.32 0.66 2 1 C2 3.97 2 6.94 2 10 C1.278125 9.649375 0.55625 9.29875 -0.1875 8.9375 C-3.35366266 7.88211245 -4.85917285 7.98135336 -8 9 C-10.31563087 10.88500271 -10.31563087 10.88500271 -10.25 14 C-10.31563087 17.11499729 -10.31563087 17.11499729 -8 19 C-4.306493 19.20146402 -1.52059568 19.17353189 2 18 C2 20.97 2 23.94 2 27 C-2.3700345 28.45667817 -6.61269796 28.86982886 -10.97265625 27.28125 C-14.93816445 25.19325418 -17.44657534 23.20338438 -19 19 C-19.67635093 13.95273118 -19.57622855 10.17379889 -17.3125 5.5625 C-12.09490956 -0.21915427 -7.52938765 -0.69297019 0 0 Z " fill="#216777" transform="translate(60,0)"/>
<path d="M0 0 C5.94 0 11.88 0 18 0 C18 2.31 18 4.62 18 7 C16.35 7 14.7 7 13 7 C13 13.6 13 20.2 13 27 C10.36 27 7.72 27 5 27 C5 20.4 5 13.8 5 7 C3.35 7 1.7 7 0 7 C0 4.69 0 2.38 0 0 Z " fill="#206778" transform="translate(0,0)"/>
<path d="M0 0 C2.64 0 5.28 0 8 0 C8 6.93 8 13.86 8 21 C10.64 21 13.28 21 16 21 C16 22.98 16 24.96 16 27 C10.72 27 5.44 27 0 27 C0 18.09 0 9.18 0 0 Z " fill="#206778" transform="translate(119,0)"/>
<path d="M0 0 C6.93 0 13.86 0 21 0 C21 1.32 21 2.64 21 4 C21.66 4 22.32 4 23 4 C23 2.68 23 1.36 23 0 C23.66 0 24.32 0 25 0 C25 1.32 25 2.64 25 4 C25.66 4 26.32 4 27 4 C27 2.68 27 1.36 27 0 C33.6 0 40.2 0 47 0 C47 1.98 47 3.96 47 6 C31.49 6 15.98 6 0 6 C0 4.02 0 2.04 0 0 Z M12 2 C11.67 2.66 11.34 3.32 11 4 C12.32 3.67 13.64 3.34 15 3 C14.01 2.67 13.02 2.34 12 2 Z M39 2 C39 2.66 39 3.32 39 4 C39.99 3.67 40.98 3.34 42 3 C41.01 2.67 40.02 2.34 39 2 Z " fill="#323232" transform="translate(129,36)"/>
<path d="M0 0 C10.56 0 21.12 0 32 0 C32 1.32 32 2.64 32 4 C32.66 4 33.32 4 34 4 C34.33 2.68 34.66 1.36 35 0 C39.95 0 44.9 0 50 0 C49.34 1.98 48.68 3.96 48 6 C32.82 6 17.64 6 2 6 C2 4.68 2 3.36 2 2 C1.34 2 0.68 2 0 2 C0 1.34 0 0.68 0 0 Z M11 2 C11 2.66 11 3.32 11 4 C12.32 3.67 13.64 3.34 15 3 C13.68 2.67 12.36 2.34 11 2 Z M27 2 C27 2.66 27 3.32 27 4 C27.66 3.67 28.32 3.34 29 3 C28.34 2.67 27.68 2.34 27 2 Z M36 2 C36 2.66 36 3.32 36 4 C36.66 4 37.32 4 38 4 C38 3.34 38 2.68 38 2 C37.34 2 36.68 2 36 2 Z " fill="#323232" transform="translate(7,36)"/>
<path d="M0 0 C1.65322266 0.01740234 1.65322266 0.01740234 3.33984375 0.03515625 C4.99693359 0.04869141 4.99693359 0.04869141 6.6875 0.0625 C7.54214844 0.07410156 8.39679688 0.08570313 9.27734375 0.09765625 C9.27734375 1.41765625 9.27734375 2.73765625 9.27734375 4.09765625 C9.93734375 4.09765625 10.59734375 4.09765625 11.27734375 4.09765625 C11.27734375 2.77765625 11.27734375 1.45765625 11.27734375 0.09765625 C19.85734375 0.09765625 28.43734375 0.09765625 37.27734375 0.09765625 C37.77234375 2.57265625 37.77234375 2.57265625 38.27734375 5.09765625 C37.27734375 6.09765625 37.27734375 6.09765625 35.35961914 6.21118164 C34.53969482 6.20594482 33.71977051 6.20070801 32.875 6.1953125 C31.98490234 6.19208984 31.09480469 6.18886719 30.17773438 6.18554688 C29.24123047 6.17716797 28.30472656 6.16878906 27.33984375 6.16015625 C26.40720703 6.15564453 25.47457031 6.15113281 24.51367188 6.14648438 C22.10151229 6.13427532 19.68945892 6.11635482 17.27734375 6.09765625 C16.61734375 6.09765625 15.95734375 6.09765625 15.27734375 6.09765625 C9.27734375 6.09765625 3.27734375 6.09765625 -2.72265625 6.09765625 C-3.10484392 4.44150968 -3.43660727 2.77308601 -3.72265625 1.09765625 C-2.72265625 0.09765625 -2.72265625 0.09765625 0 0 Z M3.27734375 2.09765625 C3.27734375 2.75765625 3.27734375 3.41765625 3.27734375 4.09765625 C3.93734375 4.09765625 4.59734375 4.09765625 5.27734375 4.09765625 C5.27734375 3.43765625 5.27734375 2.77765625 5.27734375 2.09765625 C4.61734375 2.09765625 3.95734375 2.09765625 3.27734375 2.09765625 Z M24.27734375 2.09765625 C24.27734375 2.75765625 24.27734375 3.41765625 24.27734375 4.09765625 C24.93734375 3.76765625 25.59734375 3.43765625 26.27734375 3.09765625 C25.61734375 2.76765625 24.95734375 2.43765625 24.27734375 2.09765625 Z " fill="#333333" transform="translate(75.72265625,35.90234375)"/>
<path d="M0 0 C54.78 0 109.56 0 166 0 C166 0.33 166 0.66 166 1 C111.22 1 56.44 1 0 1 C0 0.67 0 0.34 0 0 Z " fill="#000000" transform="translate(12,32)"/>
<path d="M0 0 C5.28 0 10.56 0 16 0 C16 2.31 16 4.62 16 7 C10.72 7 5.44 7 0 7 C0 4.69 0 2.38 0 0 Z " fill="#D34400" transform="translate(138,0)"/>
<path d="M0 0 C5.28 0 10.56 0 16 0 C16 2.31 16 4.62 16 7 C10.72 7 5.44 7 0 7 C0 4.69 0 2.38 0 0 Z " fill="#206678" transform="translate(22,0)"/>
<path d="M0 0 C5.28 0 10.56 0 16 0 C16 1.98 16 3.96 16 6 C10.72 6 5.44 6 0 6 C0 4.02 0 2.04 0 0 Z " fill="#D34400" transform="translate(138,21)"/>
<path d="M0 0 C5.28 0 10.56 0 16 0 C16 1.98 16 3.96 16 6 C10.72 6 5.44 6 0 6 C0 4.02 0 2.04 0 0 Z " fill="#206678" transform="translate(22,21)"/>
<path d="M0 0 C5.28 0 10.56 0 16 0 C16 1.98 16 3.96 16 6 C10.72 6 5.44 6 0 6 C0 4.02 0 2.04 0 0 Z " fill="#D34400" transform="translate(138,11)"/>
<path d="M0 0 C5.28 0 10.56 0 16 0 C16 1.98 16 3.96 16 6 C10.72 6 5.44 6 0 6 C0 4.02 0 2.04 0 0 Z " fill="#206678" transform="translate(22,11)"/>
<path d="M0 0 C3.58806317 3.38872633 6.45684799 6.76141332 9 11 C9 11.66 9 12.32 9 13 C5.9254548 13.35475522 3.06238032 13.50952125 0 13 C-2.6875 10.3125 -2.6875 10.3125 -4 7 C-3.2602261 3.74499482 -2.35429332 2.35429332 0 0 Z " fill="#D44400" transform="translate(176,14)"/>
<path d="M0 0 C-1.55701931 4.67105792 -4.08447373 8.08705685 -7 12 C-9.0814699 10.11996267 -10.73895537 8.55689522 -11.9375 6 C-12 4 -12 4 -11.125 1.75 C-7.77032556 -1.01267307 -4.18042133 -0.3155035 0 0 Z " fill="#D44300" transform="translate(184,0)"/>
<path d="M0 0 C0 1.65 0 3.3 0 5 C-1.65 5 -3.3 5 -5 5 C-5.33 3.35 -5.66 1.7 -6 0 C-3.50907189 -1.24546405 -2.58919267 -0.7767578 0 0 Z " fill="#1F6778" transform="translate(124,37)"/>
<path d="M0 0 C2.125 0.375 2.125 0.375 4 1 C4 2.65 4 4.3 4 6 C2.35 6 0.7 6 -1 6 C-1.625 4.125 -1.625 4.125 -2 2 C-1.34 1.34 -0.68 0.68 0 0 Z " fill="#216777" transform="translate(63,36)"/>
</svg>
